<svg xmlns="http://www.w3.org/2000/svg" viewBox="0 0 488.01 139.2"><defs><style>.cls-1{fill:#bc1b00;}.cls-2{fill:#fff;}</style></defs><title>Asset 4@5000</title><g id="Layer_2" data-name="Layer 2"><g id="Desktop"><rect class="cls-1" x="225.27" y="24.38" width="262.74" height="87"/><path class="cls-1" d="M45.3,33H58.5v2.1q0,20.25-16.2,32.4a38.59,38.59,0,0,1,12,14.17A39.86,39.86,0,0,1,58.5,99.6V105H45.3V99.6a28.87,28.87,0,0,0-4-15.15,26.06,26.06,0,0,0-12-10.35A27,27,0,0,0,17.33,84.9a30.31,30.31,0,0,0-4.13,15.6V105H0v-4.5q0-21,16.2-33Q0,55.35,0,34.2V33H13.2v1.2a30.3,30.3,0,0,0,4.13,15.6,27.84,27.84,0,0,0,11.92,11q16-7.5,16-25.65Z"/><path class="cls-1" d="M70.5,139.2V69a38.12,38.12,0,0,1,2.85-14.7,36.2,36.2,0,0,1,19.5-19.87,35.83,35.83,0,0,1,14.4-2.92,35.3,35.3,0,0,1,14.33,2.92A37.4,37.4,0,0,1,144,69a38.47,38.47,0,0,1-2.77,14.63,36.86,36.86,0,0,1-7.73,11.92,36.28,36.28,0,0,1-26.25,11A36.68,36.68,0,0,1,89.4,102V88.5a28.58,28.58,0,0,0,17.4,5.4A24.92,24.92,0,0,0,116.62,92a21.64,21.64,0,0,0,7.5-5.17A22.71,22.71,0,0,0,128.85,79a31,31,0,0,0,0-20,23.36,23.36,0,0,0-4.65-7.87A21.27,21.27,0,0,0,116.92,46a23.86,23.86,0,0,0-9.67-1.87,24.32,24.32,0,0,0-9.52,1.8A21.13,21.13,0,0,0,90.37,51a22.67,22.67,0,0,0-4.73,7.88A29.64,29.64,0,0,0,84,69v70.2Z"/><path class="cls-1" d="M169.95,0V33H182.7q16.65,0,23.85,5,6.45,4.35,8.18,10.42a60.3,60.3,0,0,1,1.73,16V105h-13.2V64.5q0-2.7-.15-4.58a23.55,23.55,0,0,0-1.05-4.8,12.91,12.91,0,0,0-2.55-4.8,14,14,0,0,0-4.8-3.3A18.51,18.51,0,0,0,187,45.6h-17.1V105h-13.2V0Z"/><path class="cls-2" d="M239.7,42.45q10.5-10.95,26.25-11a35.3,35.3,0,0,1,14.33,2.92A37.41,37.41,0,0,1,302.7,69a38.47,38.47,0,0,1-2.77,14.63,36.87,36.87,0,0,1-7.73,11.92,36.66,36.66,0,0,1-52.5,0A36.82,36.82,0,0,1,232,83.63,38.42,38.42,0,0,1,229.2,69Q229.2,53.1,239.7,42.45Zm26.25,1.65q-10.5,0-16.87,6.9T242.7,69q0,11.1,6.38,18t16.87,6.9q10.65,0,17-7T289.2,69q0-10.95-6.3-17.92T265.95,44.1Z"/><path class="cls-2" d="M313.19,105V64q0-17.25,6.45-23.85a19.89,19.89,0,0,1,7.65-5,31.65,31.65,0,0,1,7.88-2q3.38-.3,9.22-.3h13.2V45.6h-15.9q-3,0-4.65.15a14.32,14.32,0,0,0-3.9,1,9.87,9.87,0,0,0-3.9,2.85q-2.85,3.6-2.85,14.4v41Z"/><path class="cls-2" d="M404.39,62.7V76.2a22.33,22.33,0,0,0-13.95-4.35q-7.05,0-11,2.77a9.09,9.09,0,0,0-3.9,7.88q0,9.9,14.7,9.9h19.8V63.75q0-18.15-17.7-18.15h-24V33h24.75q14.55,0,22.35,7.2t7.8,20.7V105H389.84q-12.75,0-20.25-5.7t-7.5-16.65Q362.09,71.7,370,66t20-5.7A48.24,48.24,0,0,1,404.39,62.7Z"/><polygon class="cls-2" points="455.02 70.38 434.82 105.38 475.23 105.38 455.02 70.38"/></g></g></svg>